<!DOCTYPE svg PUBLIC "-//W3C//DTD SVG 1.1//EN" "http://www.w3.org/Graphics/SVG/1.1/DTD/svg11.dtd">
<!-- Uploaded to: SVG Repo, www.svgrepo.com, Transformed by: SVG Repo Mixer Tools -->
<svg fill="#919191" width="800px" height="800px" viewBox="0 0 22 22" xmlns="http://www.w3.org/2000/svg" id="memory-checkbox-cross">
<g id="SVGRepo_bgCarrier" stroke-width="0"/>
<g id="SVGRepo_tracerCarrier" stroke-linecap="round" stroke-linejoin="round"/>
<g id="SVGRepo_iconCarrier">
<path d="M13 12H14V13H15V15H13V14H12V13H10V14H9V15H7V13H8V12H9V10H8V9H7V7H9V8H10V9H12V8H13V7H15V9H14V10H13V12M18 19H4V18H3V4H4V3H18V4H19V18H18V19M5 5V17H17V5H5Z"/>
</g>
</svg>